<mxfile host="65bd71144e">
    <diagram id="eUhTxTXyAQ_sLvQKyVPA" name="Page-1">
        <mxGraphModel dx="1284" dy="621" grid="1" gridSize="10" guides="1" tooltips="1" connect="1" arrows="1" fold="1" page="1" pageScale="1" pageWidth="850" pageHeight="1100" math="0" shadow="0">
            <root>
                <mxCell id="0"/>
                <mxCell id="1" parent="0"/>
                <mxCell id="6" value="" style="edgeStyle=none;html=1;" parent="1" source="2" target="5" edge="1">
                    <mxGeometry relative="1" as="geometry"/>
                </mxCell>
                <mxCell id="19" value="" style="edgeStyle=none;html=1;exitX=1;exitY=0.3333333333333333;exitDx=0;exitDy=0;exitPerimeter=0;entryX=0;entryY=0.5;entryDx=0;entryDy=0;endArrow=none;endFill=0;" parent="1" source="2" target="18" edge="1">
                    <mxGeometry relative="1" as="geometry"/>
                </mxCell>
                <mxCell id="21" value="" style="edgeStyle=none;html=1;exitX=1;exitY=0.3333333333333333;exitDx=0;exitDy=0;exitPerimeter=0;entryX=0;entryY=0.5;entryDx=0;entryDy=0;endArrow=none;endFill=0;" parent="1" source="2" target="20" edge="1">
                    <mxGeometry relative="1" as="geometry"/>
                </mxCell>
                <mxCell id="2" value="Guest" style="shape=umlActor;verticalLabelPosition=bottom;verticalAlign=top;html=1;" parent="1" vertex="1">
                    <mxGeometry x="60" y="139" width="30" height="60" as="geometry"/>
                </mxCell>
                <mxCell id="3" value="Dev Companion" style="swimlane;" parent="1" vertex="1">
                    <mxGeometry x="120" y="14.5" width="600" height="590" as="geometry"/>
                </mxCell>
                <mxCell id="9" value="Browse Roadmaps" style="ellipse;whiteSpace=wrap;html=1;verticalAlign=top;" parent="3" vertex="1">
                    <mxGeometry x="357.5" y="45.5" width="120" height="30" as="geometry"/>
                </mxCell>
                <mxCell id="11" value="Browse Educational Content" style="ellipse;whiteSpace=wrap;html=1;verticalAlign=top;" parent="3" vertex="1">
                    <mxGeometry x="357.5" y="84.18" width="120" height="35.82" as="geometry"/>
                </mxCell>
                <mxCell id="13" value="Browse Quizes" style="ellipse;whiteSpace=wrap;html=1;verticalAlign=top;" parent="3" vertex="1">
                    <mxGeometry x="357.5" y="129.5" width="120" height="30" as="geometry"/>
                </mxCell>
                <mxCell id="15" value="Browse Projects" style="ellipse;whiteSpace=wrap;html=1;verticalAlign=top;" parent="3" vertex="1">
                    <mxGeometry x="357.5" y="169.5" width="120" height="30" as="geometry"/>
                </mxCell>
                <mxCell id="16" value="Browse Solutions" style="ellipse;whiteSpace=wrap;html=1;verticalAlign=top;" parent="3" vertex="1">
                    <mxGeometry x="357.5" y="209.5" width="120" height="30" as="geometry"/>
                </mxCell>
                <mxCell id="18" value="Browse Content" style="ellipse;whiteSpace=wrap;html=1;verticalAlign=top;" parent="3" vertex="1">
                    <mxGeometry x="50" y="75.5" width="120" height="30" as="geometry"/>
                </mxCell>
                <mxCell id="14" value="" style="edgeStyle=none;html=1;entryX=0;entryY=0.5;entryDx=0;entryDy=0;exitX=1;exitY=0.5;exitDx=0;exitDy=0;startArrow=block;startFill=0;endArrow=none;endFill=0;" parent="3" source="18" target="15" edge="1">
                    <mxGeometry relative="1" as="geometry">
                        <mxPoint x="180" y="120" as="sourcePoint"/>
                        <mxPoint x="32.55657754316576" y="128.3651957897423" as="targetPoint"/>
                    </mxGeometry>
                </mxCell>
                <mxCell id="17" value="" style="edgeStyle=none;html=1;entryX=0;entryY=0.5;entryDx=0;entryDy=0;exitX=1;exitY=0.5;exitDx=0;exitDy=0;startArrow=block;startFill=0;endArrow=none;endFill=0;" parent="3" source="18" target="16" edge="1">
                    <mxGeometry relative="1" as="geometry">
                        <mxPoint x="150" y="80" as="sourcePoint"/>
                        <mxPoint x="32.55657754316576" y="168.3651957897423" as="targetPoint"/>
                    </mxGeometry>
                </mxCell>
                <mxCell id="12" value="" style="edgeStyle=none;html=1;entryX=0;entryY=0.5;entryDx=0;entryDy=0;exitX=1;exitY=0.5;exitDx=0;exitDy=0;startArrow=block;startFill=0;endArrow=none;endFill=0;" parent="3" source="18" target="13" edge="1">
                    <mxGeometry relative="1" as="geometry">
                        <mxPoint x="150" y="80" as="sourcePoint"/>
                        <mxPoint x="152.55657754316576" y="128.3651957897423" as="targetPoint"/>
                    </mxGeometry>
                </mxCell>
                <mxCell id="10" value="" style="edgeStyle=none;html=1;entryX=0;entryY=0.5;entryDx=0;entryDy=0;exitX=1;exitY=0.5;exitDx=0;exitDy=0;startArrow=block;startFill=0;endArrow=none;endFill=0;" parent="3" source="18" target="11" edge="1">
                    <mxGeometry relative="1" as="geometry">
                        <mxPoint x="180" y="120" as="sourcePoint"/>
                        <mxPoint x="272.55657754316576" y="127.04519578974231" as="targetPoint"/>
                    </mxGeometry>
                </mxCell>
                <mxCell id="8" value="" style="edgeStyle=none;html=1;entryX=0;entryY=0.5;entryDx=0;entryDy=0;exitX=1;exitY=0.5;exitDx=0;exitDy=0;startArrow=block;startFill=0;endArrow=none;endFill=0;" parent="3" source="18" target="9" edge="1">
                    <mxGeometry relative="1" as="geometry">
                        <mxPoint x="180" y="121.31578947368416" as="sourcePoint"/>
                        <mxPoint x="272.55657754316576" y="88.3651957897423" as="targetPoint"/>
                    </mxGeometry>
                </mxCell>
                <mxCell id="20" value="Register" style="ellipse;whiteSpace=wrap;html=1;verticalAlign=top;" parent="3" vertex="1">
                    <mxGeometry x="65" y="130" width="90" height="30" as="geometry"/>
                </mxCell>
                <mxCell id="22" value="Login" style="ellipse;whiteSpace=wrap;html=1;verticalAlign=top;" parent="3" vertex="1">
                    <mxGeometry x="320" y="266.75" width="100" height="35.5" as="geometry"/>
                </mxCell>
                <mxCell id="25" value="&amp;lt;&amp;lt;extend&amp;gt;&amp;gt;" style="html=1;verticalAlign=bottom;labelBackgroundColor=none;endArrow=open;endFill=0;dashed=1;exitX=0;exitY=0;exitDx=0;exitDy=0;entryX=1;entryY=1;entryDx=0;entryDy=0;" parent="3" source="22" target="20" edge="1">
                    <mxGeometry x="-0.3504" y="2" width="160" relative="1" as="geometry">
                        <mxPoint x="85" y="195" as="sourcePoint"/>
                        <mxPoint x="85" y="161" as="targetPoint"/>
                        <mxPoint as="offset"/>
                    </mxGeometry>
                </mxCell>
                <mxCell id="26" value="Follow a Roadmap" style="ellipse;whiteSpace=wrap;html=1;verticalAlign=top;" parent="3" vertex="1">
                    <mxGeometry x="50" y="209.5" width="120" height="30" as="geometry"/>
                </mxCell>
                <mxCell id="28" value="&amp;lt;&amp;lt;include&amp;gt;&amp;gt;" style="html=1;verticalAlign=bottom;labelBackgroundColor=none;endArrow=open;endFill=0;dashed=1;exitX=1;exitY=0.5;exitDx=0;exitDy=0;entryX=0;entryY=0.5;entryDx=0;entryDy=0;" parent="3" source="26" target="22" edge="1">
                    <mxGeometry x="-0.2828" y="-10" width="160" relative="1" as="geometry">
                        <mxPoint x="150" y="250" as="sourcePoint"/>
                        <mxPoint x="310" y="250" as="targetPoint"/>
                        <mxPoint as="offset"/>
                    </mxGeometry>
                </mxCell>
                <mxCell id="29" value="Select a project to work on" style="ellipse;whiteSpace=wrap;html=1;verticalAlign=top;" parent="3" vertex="1">
                    <mxGeometry x="30" y="270" width="160" height="29" as="geometry"/>
                </mxCell>
                <mxCell id="33" value="Propose Content" style="ellipse;whiteSpace=wrap;html=1;verticalAlign=top;" parent="3" vertex="1">
                    <mxGeometry x="50" y="475" width="120" height="30" as="geometry"/>
                </mxCell>
                <mxCell id="35" value="Propose Roadmaps" style="ellipse;whiteSpace=wrap;html=1;verticalAlign=top;" parent="3" vertex="1">
                    <mxGeometry x="262.5" y="470" width="135" height="30" as="geometry"/>
                </mxCell>
                <mxCell id="36" value="" style="edgeStyle=none;html=1;startArrow=block;startFill=0;endArrow=none;endFill=0;exitX=1;exitY=0.5;exitDx=0;exitDy=0;entryX=0;entryY=0.5;entryDx=0;entryDy=0;" parent="3" source="33" target="35" edge="1">
                    <mxGeometry relative="1" as="geometry"/>
                </mxCell>
                <mxCell id="38" value="Propose Projects" style="ellipse;whiteSpace=wrap;html=1;verticalAlign=top;" parent="3" vertex="1">
                    <mxGeometry x="270" y="520" width="120" height="30" as="geometry"/>
                </mxCell>
                <mxCell id="39" value="" style="edgeStyle=none;html=1;startArrow=block;startFill=0;endArrow=none;endFill=0;exitX=1;exitY=0.5;exitDx=0;exitDy=0;entryX=0;entryY=0.5;entryDx=0;entryDy=0;" parent="3" source="33" target="38" edge="1">
                    <mxGeometry relative="1" as="geometry"/>
                </mxCell>
                <mxCell id="57" value="&amp;lt;&amp;lt;include&amp;gt;&amp;gt;" style="html=1;verticalAlign=bottom;labelBackgroundColor=none;endArrow=open;endFill=0;dashed=1;exitX=1;exitY=0.5;exitDx=0;exitDy=0;entryX=0;entryY=0.5;entryDx=0;entryDy=0;" parent="3" source="29" target="22" edge="1">
                    <mxGeometry x="-0.2623" y="-8" width="160" relative="1" as="geometry">
                        <mxPoint x="110" y="299" as="sourcePoint"/>
                        <mxPoint x="200" y="250" as="targetPoint"/>
                        <mxPoint as="offset"/>
                    </mxGeometry>
                </mxCell>
                <mxCell id="58" value="Submit solution" style="ellipse;whiteSpace=wrap;html=1;verticalAlign=top;" parent="3" vertex="1">
                    <mxGeometry x="50" y="340" width="120" height="26.5" as="geometry"/>
                </mxCell>
                <mxCell id="60" value="&amp;lt;&amp;lt;extend&amp;gt;&amp;gt;" style="html=1;verticalAlign=bottom;labelBackgroundColor=none;endArrow=open;endFill=0;dashed=1;exitX=0.5;exitY=0;exitDx=0;exitDy=0;entryX=0.5;entryY=1;entryDx=0;entryDy=0;" parent="3" source="58" target="29" edge="1">
                    <mxGeometry x="-0.1425" y="1" width="160" relative="1" as="geometry">
                        <mxPoint x="200" y="214.5" as="sourcePoint"/>
                        <mxPoint x="142.09528570183545" y="165.51397290232546" as="targetPoint"/>
                        <mxPoint as="offset"/>
                    </mxGeometry>
                </mxCell>
                <mxCell id="63" value="&amp;lt;&amp;lt;include&amp;gt;&amp;gt;" style="html=1;verticalAlign=bottom;labelBackgroundColor=none;endArrow=open;endFill=0;dashed=1;exitX=1;exitY=0.5;exitDx=0;exitDy=0;entryX=0.5;entryY=1;entryDx=0;entryDy=0;" parent="3" source="58" target="22" edge="1">
                    <mxGeometry x="-0.2623" y="-8" width="160" relative="1" as="geometry">
                        <mxPoint x="187.8579899802279" y="343.48611711880665" as="sourcePoint"/>
                        <mxPoint x="200" y="250" as="targetPoint"/>
                        <mxPoint as="offset"/>
                    </mxGeometry>
                </mxCell>
                <mxCell id="64" value="Solve Quizes" style="ellipse;whiteSpace=wrap;html=1;verticalAlign=top;" parent="3" vertex="1">
                    <mxGeometry x="50" y="390" width="120" height="30" as="geometry"/>
                </mxCell>
                <mxCell id="66" value="Login to Partners Portal" style="ellipse;whiteSpace=wrap;html=1;verticalAlign=top;" parent="3" vertex="1">
                    <mxGeometry x="220" y="410" width="120" height="40" as="geometry"/>
                </mxCell>
                <mxCell id="69" value="&amp;lt;&amp;lt;include&amp;gt;&amp;gt;" style="html=1;verticalAlign=bottom;labelBackgroundColor=none;endArrow=open;endFill=0;dashed=1;exitX=1;exitY=0;exitDx=0;exitDy=0;entryX=0;entryY=1;entryDx=0;entryDy=0;" parent="3" source="33" target="66" edge="1">
                    <mxGeometry x="-0.2623" y="-8" width="160" relative="1" as="geometry">
                        <mxPoint x="187.8579899802279" y="343.48611711880665" as="sourcePoint"/>
                        <mxPoint x="200" y="250" as="targetPoint"/>
                        <mxPoint as="offset"/>
                    </mxGeometry>
                </mxCell>
                <mxCell id="27" value="" style="edgeStyle=none;html=1;startArrow=none;startFill=0;endArrow=none;endFill=0;exitX=1;exitY=0.3333333333333333;exitDx=0;exitDy=0;exitPerimeter=0;entryX=0;entryY=0.5;entryDx=0;entryDy=0;" parent="1" source="5" target="26" edge="1">
                    <mxGeometry relative="1" as="geometry"/>
                </mxCell>
                <mxCell id="30" value="" style="edgeStyle=none;html=1;startArrow=none;startFill=0;endArrow=none;endFill=0;exitX=1;exitY=0.3333333333333333;exitDx=0;exitDy=0;exitPerimeter=0;entryX=0;entryY=0.5;entryDx=0;entryDy=0;" parent="1" source="5" target="29" edge="1">
                    <mxGeometry relative="1" as="geometry"/>
                </mxCell>
                <mxCell id="65" value="" style="edgeStyle=none;html=1;startArrow=none;startFill=0;endArrow=none;endFill=0;exitX=1;exitY=0.3333333333333333;exitDx=0;exitDy=0;exitPerimeter=0;entryX=0;entryY=0.5;entryDx=0;entryDy=0;" parent="1" source="5" target="64" edge="1">
                    <mxGeometry relative="1" as="geometry"/>
                </mxCell>
                <mxCell id="5" value="User" style="shape=umlActor;verticalLabelPosition=bottom;verticalAlign=top;html=1;" parent="1" vertex="1">
                    <mxGeometry x="60" y="279.5" width="30" height="60" as="geometry"/>
                </mxCell>
                <mxCell id="34" value="" style="edgeStyle=none;html=1;startArrow=none;startFill=0;endArrow=none;endFill=0;exitX=1;exitY=0.3333333333333333;exitDx=0;exitDy=0;exitPerimeter=0;entryX=0;entryY=0.5;entryDx=0;entryDy=0;" parent="1" source="32" target="33" edge="1">
                    <mxGeometry relative="1" as="geometry"/>
                </mxCell>
                <mxCell id="32" value="Partners" style="shape=umlActor;verticalLabelPosition=bottom;verticalAlign=top;html=1;outlineConnect=0;" parent="1" vertex="1">
                    <mxGeometry x="60" y="484.5" width="30" height="60" as="geometry"/>
                </mxCell>
                <mxCell id="73" value="" style="edgeStyle=none;html=1;startArrow=none;startFill=0;endArrow=none;endFill=0;exitX=1;exitY=0.3333333333333333;exitDx=0;exitDy=0;exitPerimeter=0;entryX=0;entryY=0.5;entryDx=0;entryDy=0;" edge="1" parent="1" source="5" target="58">
                    <mxGeometry relative="1" as="geometry">
                        <mxPoint x="100" y="309.5" as="sourcePoint"/>
                        <mxPoint x="160" y="334.5" as="targetPoint"/>
                    </mxGeometry>
                </mxCell>
            </root>
        </mxGraphModel>
    </diagram>
</mxfile>